<svg width="55" height="54" viewBox="0 0 55 54" fill="none" xmlns="http://www.w3.org/2000/svg">
<path d="M6.50383 38.9028C7.38133 39.7803 8.79883 39.7803 9.67633 38.9028L20.0038 28.5753C20.212 28.3667 20.4592 28.2012 20.7314 28.0883C21.0036 27.9754 21.2954 27.9173 21.5901 27.9173C21.8848 27.9173 22.1765 27.9754 22.4487 28.0883C22.7209 28.2012 22.9682 28.3667 23.1763 28.5753L25.8088 31.2078C27.0745 32.4718 28.7901 33.1818 30.5788 33.1818C32.3676 33.1818 34.0832 32.4718 35.3488 31.2078L44.7538 21.8253L47.9938 25.0653C48.1511 25.2194 48.3501 25.3241 48.5663 25.3662C48.7824 25.4083 49.0062 25.3861 49.2098 25.3022C49.4134 25.2184 49.5879 25.0766 49.7118 24.8945C49.8356 24.7124 49.9032 24.4979 49.9063 24.2778V14.6253C49.9125 14.4778 49.8884 14.3306 49.8355 14.1928C49.7826 14.055 49.7019 13.9295 49.5986 13.8241C49.4953 13.7187 49.3715 13.6355 49.2348 13.5798C49.0981 13.5241 48.9514 13.497 48.8038 13.5003H39.1513C38.1388 13.5003 37.6438 14.7153 38.3638 15.4128L41.6038 18.6528L32.2213 28.0353C32.0132 28.2438 31.7659 28.4093 31.4937 28.5222C31.2215 28.6351 30.9298 28.6933 30.6351 28.6933C30.3404 28.6933 30.0486 28.6351 29.7764 28.5222C29.5042 28.4093 29.257 28.2438 29.0488 28.0353L26.4163 25.4028C25.1507 24.1387 23.4351 23.4287 21.6463 23.4287C19.8576 23.4287 18.142 24.1387 16.8763 25.4028L6.50383 35.7303C5.64883 36.6078 5.64883 38.0478 6.50383 38.9028Z" fill="#3993FB"/>
</svg>
